<?xml version="1.0" encoding="utf-8"?>
<!-- Generator: Adobe Illustrator 22.1.0, SVG Export Plug-In . SVG Version: 6.00 Build 0)  -->
<svg version="1.1" id="Ebene_1" xmlns="http://www.w3.org/2000/svg" xmlns:xlink="http://www.w3.org/1999/xlink" x="0px" y="0px"
	 viewBox="0 0 100.3329849 157.8853912" style="enable-background:new 0 0 100.3329849 157.8853912;" xml:space="preserve">
<style type="text/css">
	.st0{fill:none;stroke:#FF5570;stroke-width:1.5;stroke-miterlimit:10;}
	.st1{fill:#1D1D1B;}
	.st2{fill:#232323;}
</style>
<line class="st0" x1="1.9297218" y1="116.7144623" x2="18" y2="100.6441879"/>
<g>
	<path class="st1" d="M13.2392588,4.3721857H8.8457041v22.4560547H4.4902358V4.3721857H0.0966809V0.5421075h13.1425781V4.3721857z"
		/>
	<path class="st1" d="M24.7021503,26.8282394h-4.3554688v-9.3505859L15.0517588,0.5421075h4.5810556l2.9287109,12.2041016
		l2.9296875-12.2041016h4.5058594l-5.2949219,16.9355469V26.8282394z"/>
	<path class="st1" d="M45.9316406,6.0997248v4.9941406c0,3.9804688-2.6279297,5.5576162-6.6083984,5.5576162h-2.4414062v10.1767578
		h-4.3554688V0.5421075h6.796875C43.3037109,0.5421075,45.9316406,2.119256,45.9316406,6.0997248z M41.5761719,6.775506
		c0-1.8774414-0.9765625-2.4033203-2.4033203-2.4033203h-2.2910156v8.4492188h2.2910156
		c1.4267578,0,2.4033203-0.5258789,2.4033203-2.4033203V6.775506z"/>
	<path class="st1" d="M55.2861328,0.2413263h0.2998047c3.9804688,0,6.609375,1.5771484,6.609375,5.5576172v15.7719717
		c0,3.9804688-2.6289062,5.5576172-6.609375,5.5576172h-0.2998047c-3.9804688,0-6.609375-1.5771484-6.609375-5.5576172V5.7989435
		C48.6767578,1.7813654,51.3056641,0.2413263,55.2861328,0.2413263z M55.4355469,23.2984543
		c1.4277344,0,2.4033203-0.5258789,2.4033203-2.4033203V6.4752131c0-1.8774414-0.9755859-2.4033203-2.4033203-2.4033203
		c-1.4267578,0-2.4033203,0.5258789-2.4033203,2.4033203V20.895134
		C53.0322266,22.7725754,54.0087891,23.2984543,55.4355469,23.2984543z"/>
	<path class="st1" d="M14.9667978,52.6304855c0,4.0556641-2.6289062,5.5576172-6.609375,5.5576172H8.0576181
		c-3.9804683,0-6.6093745-1.4643555-6.6093745-5.5576172V36.8585129c0-3.9052734,2.6289062-5.5576172,6.6093745-5.5576172h0.2998047
		c3.9804688,0,6.609375,1.6523438,6.609375,5.5576172v3.7553711h-4.3564453v-3.0791016
		c0-1.8774414-0.9755859-2.4033203-2.4033203-2.4033203c-1.4267573,0-2.4033198,0.5258789-2.4033198,2.4033203v14.4199219
		c0,1.8774414,0.9765625,2.4033203,2.4033198,2.4033203c1.4277344,0,2.4033203-0.5258789,2.4033203-2.4033203v-3.9052734H8.0576181
		v-3.6801758h6.9091797V52.6304855z"/>
	<path class="st1" d="M28.0185566,57.8878098L24.6767597,47.410759h-2.1787109v10.4770508H18.14258V31.6016769h6.796875
		c3.9804688,0,6.6083984,1.5771484,6.6083984,5.5576172v4.6938477c0,2.5161133-1.0507812,4.0932617-2.8535156,4.8818359
		l3.7548809,11.152832H28.0185566z M22.4980488,43.6558762h2.2910156c1.4267578,0,2.4033203-0.5258789,2.4033203-2.4033203
		v-3.4174805c0-1.8774414-0.9765625-2.4033203-2.4033203-2.4033203h-2.2910156V43.6558762z"/>
	<path class="st1" d="M44.4121094,52.0298996h-4.8066406l-0.9394531,5.8579102h-4.2050781l4.8818359-26.2861328h5.4824219
		l4.9570312,26.2861328h-4.4316406L44.4121094,52.0298996z M43.8486328,48.4249191l-1.8398438-11.6787109l-1.8398438,11.6787109
		H43.8486328z"/>
	<path class="st1" d="M65.7177734,37.1592941v4.9941406c0,3.9804688-2.6279297,5.5576172-6.6083984,5.5576172h-2.4414062v10.1767578
		H52.3125V31.6016769h6.796875C63.0898438,31.6016769,65.7177734,33.1788254,65.7177734,37.1592941z M61.3623047,37.8350754
		c0-1.8774414-0.9765625-2.4033203-2.4033203-2.4033203h-2.2910156v8.4492188h2.2910156
		c1.4267578,0,2.4033203-0.5258789,2.4033203-2.4033203V37.8350754z"/>
	<path class="st1" d="M72.8925781,31.6016769v10.9648438h4.9941406V31.6016769h4.3564453v26.2861328h-4.3564453V46.4717941
		h-4.9941406v11.4160156h-4.3554688V31.6016769H72.8925781z"/>
	<path class="st1" d="M94.4238281,57.8878098h-4.3554688v-9.3505859l-5.2949219-16.9355469h4.5810547l2.9287109,12.2041016
		l2.9296875-12.2041016H99.71875l-5.2949219,16.9355469V57.8878098z"/>
	<path class="st1" d="M1.5986341,88.9473801V62.6612473H5.954103l5.5205073,16.2597656V62.6612473h3.9804688v26.2861328h-4.1308594
		L5.579103,71.8614426v17.0859375H1.5986341z"/>
	<path class="st1" d="M18.8115253,88.9473801V62.6612473h11.5283203v3.8300781h-7.1728516v7.2099609h6.0087891v3.8300781h-6.0087891
		v7.5859375h7.2851562v3.8300781H18.8115253z"/>
	<path class="st1" d="M43.2890625,88.9473801l-3.3427734-10.4770508h-2.1777344v10.4770508h-4.3554688V62.6612473h6.796875
		c3.9804688,0,6.6083984,1.5771484,6.6083984,5.5576172v4.6938477c0,2.5161133-1.0507812,4.0932617-2.8535156,4.8818359
		l3.7548828,11.152832H43.2890625z M37.7685547,74.7154465h2.2910156c1.4267578,0,2.4033203-0.5258789,2.4033203-2.4033203
		v-3.4174805c0-1.8774414-0.9765625-2.4033203-2.4033203-2.4033203h-2.2910156V74.7154465z"/>
	<path class="st1" d="M63.8183594,68.2188644v15.1708984c0,3.9804688-2.6289062,5.5576172-6.609375,5.5576172h-6.7216797V62.6612473
		h6.7216797C61.1894531,62.6612473,63.8183594,64.2383957,63.8183594,68.2188644z M57.0585938,66.4913254h-2.2158203v18.6259766
		h2.2158203c1.4267578,0,2.4033203-0.5263672,2.4033203-2.4033203V68.8946457
		C59.4619141,67.0172043,58.4853516,66.4913254,57.0585938,66.4913254z"/>
</g>
<g>
	<path class="st2" d="M7.629178,131.2155609v7.1901398H5.8592062l-0.0963454-0.7886505
		c-0.3734622,0.5393372-0.9952369,0.926712-1.853405,0.926712c-1.838506,0-2.9032702-1.2167358-2.9032702-3.0562286v-4.2719727
		h1.8385062v4.0236511c0,1.1203918,0.5810513,1.659729,1.4938483,1.6319122
		c0.9545131-0.0139008,1.4521317-0.6505737,1.4521317-1.7153473v-3.9402161H7.629178z"/>
	<path class="st2" d="M12.5517254,138.4057007h-1.9368372v-10.3844299h1.9368372V138.4057007z"/>
	<path class="st2" d="M15.9655266,136.2761688v-3.3462524H14.859046v-1.7143555h0.5393353
		c0.4429893,0,0.5671453-0.2214966,0.5671453-0.7052155v-1.2584381h1.9358444v1.9636536h1.6458168v1.7143555H17.901371v2.9171753
		c0,0.622757,0.1658726,0.8581543,0.8025475,0.8581543h0.8432693v1.7004547h-1.4660378
		C16.6568298,138.4057007,15.9655266,137.5763397,15.9655266,136.2761688z"/>
	<path class="st2" d="M22.1743336,128.2417755h1.9636555v1.8673096h-1.9636555V128.2417755z M22.2011509,131.2155609h1.9368382
		v7.1901398h-1.9368382V131.2155609z"/>
	<path class="st2" d="M38.2272453,133.9807739v4.4388275h-1.9497528v-4.0514679
		c0-1.0786743-0.5115242-1.5623779-1.3001633-1.5623779c-0.7608299,0-1.340889,0.4976196-1.3686981,1.6170044v3.9829407h-1.8673115
		v-3.9412231c0-1.1750183-0.5254288-1.6587219-1.2991714-1.6587219c-0.816452,0-1.3686981,0.5115204-1.3686981,1.5762787v4.0236664
		h-1.9368382v-7.1901398h1.7977829l0.2075882,0.7876434c0.3456516-0.5939636,1.0091438-0.9266968,1.881216-0.9266968
		c0.9674263,0,1.7967892,0.3873596,2.2397785,1.2306366c0.428093-0.843277,1.2862587-1.2306366,2.1851501-1.2306366
		C36.8853607,131.0765076,38.2272453,131.9893036,38.2272453,133.9807739z"/>
	<path class="st2" d="M48.0991554,136.995285v1.4104156h-1.0508575c-0.6356812,0-1.1611099-0.2214966-1.313076-0.843277
		c-0.4012718,0.6078796-1.2316322,0.9813385-2.2954025,0.9813385c-1.5911865,0-2.6142349-0.829361-2.6142349-2.2119751
		c0-1.2862549,0.8571777-2.1573334,2.6966743-2.1573334h1.9219398v-0.3178406c0-0.8025513-0.5115242-1.2445374-1.313076-1.2445374
		c-0.8025475,0-1.3418808,0.4280853-1.3696938,1.0647583h-1.7560654c0-1.6180115,1.3279762-2.6003265,3.2081985-2.6003265
		c1.5623817,0,3.1803894,0.7052002,3.1803894,2.8208313v2.6827698c0,0.3595581,0.1797752,0.4151764,0.4151764,0.4151764H48.0991554z
		 M45.4441986,135.4329071h-1.5762863c-0.8293648,0-1.0508614,0.3873596-1.0508614,0.7737274
		c0,0.5949707,0.4837151,0.816452,1.120388,0.816452c0.9535217,0,1.5067596-0.4707947,1.5067596-1.3279724V135.4329071z"/>
	<path class="st2" d="M50.8494682,136.2761688v-3.3462524h-1.1064835v-1.7143555h0.5393372
		c0.4429893,0,0.5671463-0.2214966,0.5671463-0.7052155v-1.2584381h1.9358444v1.9636536h1.645813v1.7143555h-1.645813v2.9171753
		c0,0.622757,0.1658707,0.8581543,0.8025436,0.8581543h0.8432693v1.7004547h-1.4660339
		C51.5407677,138.4057007,50.8494682,137.5763397,50.8494682,136.2761688z"/>
	<path class="st2" d="M63.9166679,135.335556h-5.1986732c0.0268173,1.0647736,0.7737427,1.659729,1.7004433,1.659729
		c0.7052078,0,1.2723541-0.3178406,1.4938507-0.9406128h1.949749c-0.3188324,1.4938507-1.6875305,2.5029907-3.4992218,2.5029907
		c-2.1563454,0-3.5945702-1.4928589-3.5945702-3.7475281c0-2.2397766,1.4382248-3.7336273,3.5806656-3.7336273
		c2.1434364,0,3.5677567,1.4243164,3.5677567,3.6233673V135.335556z M58.7318993,134.0641937h3.2489243
		c-0.0824394-0.9962158-0.7876472-1.4799347-1.6319122-1.4799347
		C59.5195465,132.584259,58.8143387,133.0679779,58.7318993,134.0641937z"/>
	<path class="st2" d="M8.7217531,151.4152832c0,2.2814941-1.3269825,3.7336273-3.4018822,3.7336273
		c-1.0508585,0-1.9358444-0.4280853-2.3083134-1.0647583v3.678009H1.0747198v-9.9553528h1.8116883l0.1112442,0.9813385
		c0.3595564-0.6217804,1.2167313-1.1203918,2.3222187-1.1203918C7.2835269,147.6677551,8.7217531,149.0096436,8.7217531,151.4152832
		z M6.7312799,151.4152832c0-1.2445374-0.7747355-2.0043793-1.8394995-2.01828c-1.0508587,0-1.8394995,0.7737427-1.8394995,2.032196
		c0,1.2445374,0.7886407,1.9914551,1.8394995,1.9914551C5.9565444,153.4206543,6.7312799,152.6737366,6.7312799,151.4152832z"/>
	<path class="st2" d="M18.4277935,153.5865326v1.4104156H17.376936c-0.6356812,0-1.1611099-0.2214966-1.3130779-0.8432617
		c-0.4012728,0.6078644-1.2316294,0.9813232-2.2963943,0.9813232c-1.5901928,0-2.6132412-0.829361-2.6132412-2.2119598
		c0-1.2862701,0.8571749-2.1573486,2.6966743-2.1573486h1.9219398v-0.3178406c0-0.802536-0.5115242-1.2445374-1.313077-1.2445374
		c-0.8025465,0-1.3418808,0.4280853-1.3696918,1.0647583h-1.7560663c0-1.6179962,1.3279753-2.6003265,3.2081976-2.6003265
		c1.5623827,0,3.1803865,0.7052155,3.1803865,2.8208313v2.6827698c0,0.3595581,0.1797791,0.4151764,0.4151802,0.4151764H18.4277935z
		 M15.7728367,152.0241547h-1.5762882c-0.8293638,0-1.0508595,0.3873596-1.0508595,0.7737427
		c0,0.5949554,0.4837132,0.816452,1.1203871,0.816452c0.9535198,0,1.5067606-0.4708099,1.5067606-1.3279724V152.0241547z"/>
	<path class="st2" d="M22.3402061,152.7432709c0.0139065,0.6495819,0.6227684,1.00914,1.3965111,1.00914
		c0.760828,0,1.1899128-0.2622223,1.1899128-0.746933c0-0.4419861-0.2493057-0.6912994-1.0240402-0.829361l-1.3826046-0.2632141
		c-1.4382267-0.262207-1.8941288-1.0647583-1.8941288-2.0321808c0-1.3418884,1.3547935-2.2129669,3.0284195-2.2129669
		c1.8255939,0,3.1525764,0.8988953,3.1525764,2.3371124h-1.8941269c-0.0139065-0.6078644-0.5393353-0.9535065-1.2584496-0.9535065
		c-0.7052078,0-1.1064796,0.3039246-1.1064796,0.7459259c0,0.4151764,0.3456516,0.5949554,1.0508575,0.7191162l1.3547935,0.2771149
		c1.3557873,0.276123,1.9497509,0.9813232,1.9497509,2.0321808c0,1.549469-1.4511395,2.3093109-3.13867,2.3093109
		c-1.9080353,0-3.3045444-0.939621-3.318449-2.3917389H22.3402061z"/>
	<path class="st2" d="M30.9258614,152.7432709c0.0139046,0.6495819,0.6227684,1.00914,1.3965111,1.00914
		c0.7608299,0,1.1899109-0.2622223,1.1899109-0.746933c0-0.4419861-0.2493057-0.6912994-1.0240402-0.829361l-1.3826027-0.2632141
		c-1.4382267-0.262207-1.8941288-1.0647583-1.8941288-2.0321808c0-1.3418884,1.3547935-2.2129669,3.0284214-2.2129669
		c1.825592,0,3.1525726,0.8988953,3.1525726,2.3371124h-1.8941269c-0.0139046-0.6078644-0.5393333-0.9535065-1.2584457-0.9535065
		c-0.7052097,0-1.1064816,0.3039246-1.1064816,0.7459259c0,0.4151764,0.3456497,0.5949554,1.0508595,0.7191162l1.3547935,0.2771149
		c1.3557854,0.276123,1.949749,0.9813232,1.949749,2.0321808c0,1.549469-1.4511375,2.3093109-3.1386719,2.3093109
		c-1.9080334,0-3.3045425-0.939621-3.318449-2.3917389H30.9258614z"/>
	<path class="st2" d="M38.0752754,144.8330231h1.9636574v1.8673096h-1.9636574V144.8330231z M38.1020927,147.8068085h1.9368401
		v7.1901398h-1.9368401V147.8068085z"/>
	<path class="st2" d="M46.5645866,147.6538544c2.1980629,0,3.7604446,1.5216522,3.7604446,3.7475281
		c0,2.2407684-1.5623817,3.7336273-3.7604446,3.7336273c-2.1990585,0-3.7614403-1.4928589-3.7614403-3.7336273
		C42.8031464,149.1755066,44.3655281,147.6538544,46.5645866,147.6538544z M46.5645866,153.4901886
		c1.0776749,0,1.7828827-0.8303528,1.7828827-2.1027069c0-1.2852631-0.7052078-2.0878143-1.7828827-2.0878143
		c-1.0786705,0-1.7838783,0.8025513-1.7838783,2.0878143C44.7807083,152.6598358,45.4859161,153.4901886,46.5645866,153.4901886z"/>
	<path class="st2" d="M60.0449791,150.7239838v4.2729645h-1.9497528v-3.8716888
		c0-1.1889191-0.5671463-1.7977753-1.5067596-1.7977753c-1.0240402,0-1.5762863,0.7052002-1.5762863,1.8663025v3.8031616h-1.9368401
		v-7.1901398h1.7977829l0.1112442,0.8571777c0.3734627-0.5949554,1.0925751-0.9962311,2.1702538-0.9962311
		C58.9941177,147.6677551,60.0449791,148.8854828,60.0449791,150.7239838z"/>
</g>
</svg>
