<?xml version="1.0" encoding="utf-8"?>
<!-- Generator: Adobe Illustrator 22.1.0, SVG Export Plug-In . SVG Version: 6.00 Build 0)  -->
<svg version="1.1" id="Ebene_1" xmlns="http://www.w3.org/2000/svg" xmlns:xlink="http://www.w3.org/1999/xlink" x="0px" y="0px"
	 viewBox="0 0 700 400" style="enable-background:new 0 0 700 400;" xml:space="preserve">
<style type="text/css">
	.st0{fill:#FF5570;}
	.st1{fill:none;stroke:#232323;stroke-width:4;stroke-linecap:round;stroke-linejoin:round;stroke-miterlimit:10;}
	.st2{fill:none;stroke:#232323;stroke-width:4;stroke-miterlimit:10;}
	.st3{fill:#FFFFFF;stroke:#232323;stroke-width:4;stroke-linecap:round;stroke-linejoin:round;stroke-miterlimit:10;}
	.st4{clip-path:url(#SVGID_2_);}
	.st5{fill:none;stroke:#FF5570;stroke-width:4;stroke-linecap:round;stroke-linejoin:round;stroke-miterlimit:10;}
	.st6{fill:none;stroke:#000000;stroke-width:4;stroke-linecap:round;stroke-linejoin:round;stroke-miterlimit:10;}
	.st7{fill:none;stroke:#FF5570;stroke-width:6;stroke-linecap:round;stroke-linejoin:round;stroke-miterlimit:10;}
	.st8{fill:#232323;stroke:#FFFFFF;stroke-miterlimit:10;}
	.st9{fill:none;stroke:#FF5570;stroke-width:5;stroke-miterlimit:10;}
	.st10{fill:none;stroke:#FF5570;stroke-width:7;stroke-miterlimit:10;}
	.st11{fill:none;stroke:#FF5570;stroke-width:23;stroke-miterlimit:10;}
	.st12{fill:none;stroke:#FF5570;stroke-width:3;stroke-miterlimit:10;}
	.st13{fill:#232323;}
	.st14{fill:#FF5570;stroke:#FF5570;stroke-width:0.25;stroke-miterlimit:10;}
	.st15{fill:none;stroke:#FF5570;stroke-width:11;stroke-miterlimit:10;}
	.st16{fill:#FF5570;stroke:#FF5570;stroke-width:2;stroke-miterlimit:10;}
	.st17{fill:#FFFFFF;stroke:#FF5570;stroke-width:3;stroke-miterlimit:10;}
	.st18{fill:none;stroke:#FB8D00;stroke-width:3;stroke-miterlimit:10;}
	.st19{fill:#FFFFFF;stroke:#FB8D00;stroke-width:3;stroke-miterlimit:10;}
	.st20{fill:#FB8D00;}
	.st21{fill:url(#SVGID_7_);}
	.st22{fill:url(#SVGID_8_);}
	.st23{fill:none;stroke:#FFCCD4;stroke-width:3;stroke-miterlimit:10;}
	.st24{fill:none;stroke:#FF99A9;stroke-width:3;stroke-miterlimit:10;}
	.st25{fill:#FFFFFF;stroke:#FFCCD4;stroke-width:3;stroke-miterlimit:10;}
	.st26{fill:#FFFFFF;stroke:#FF99A9;stroke-width:3;stroke-miterlimit:10;}
	.st27{fill:#FFFFFF;}
	.st28{fill:none;stroke:#232323;stroke-width:3;stroke-miterlimit:10;}
	.st29{fill:none;stroke:#FF5570;stroke-width:6;stroke-miterlimit:10;}
</style>
<g>
	<path class="st13" d="M132.6689453,205.2822266c0-47.0556641,30.6513672-80.0810547,75.7636719-80.0810547
		c45.1132812,0,75.5478516,33.0253906,75.5478516,80.0810547c0,46.8398438-30.4345703,79.6484375-75.5478516,79.6484375
		C163.3203125,284.9306641,132.6689453,252.1220703,132.6689453,205.2822266z M250.9550781,205.2822266
		c0-31.0830078-15.5410156-50.9414062-42.5224609-50.9414062c-27.1972656,0-42.9541016,19.8583984-42.9541016,50.9414062
		c0,31.0820312,15.7568359,50.5087891,42.9541016,50.5087891
		C235.4140625,255.7910156,250.9550781,236.1484375,250.9550781,205.2822266z"/>
	<path class="st13" d="M367.3017578,282.7724609h-30.6503906V154.5566406h-48.3505859V127.359375h127.3515625v27.1972656
		h-48.3505859V282.7724609z"/>
	<path class="st13" d="M465.5136719,154.5566406v38.421875h61.5166016v26.5498047h-61.5166016v63.2441406h-30.8671875V127.359375
		h104.2558594v27.1972656H465.5136719z"/>
</g>
<g>
	<path class="st13" d="M667,33v334H33V33H667 M670,30H30v340h640V30L670,30z"/>
</g>
<g>
	<path class="st13" d="M667,33v79h-79V33H667 M670,30h-85v85h85V30L670,30z"/>
</g>
<g>
	<path class="st0" d="M617.7125244,88.7630005c0,0.3464966-0.0578003,0.461998-0.4620361,0.461998h-5.3759766
		c-0.3464966,0-0.4620361-0.1732483-0.4620361-0.461998V51.1870003c0-0.3465004,0.1732788-0.4620018,0.4620361-0.4620018h5.4337158
		c0.2887573,0,0.4042969,0.1155014,0.4042969,0.4042511V88.7630005z"/>
	<path class="st0" d="M646.5,83.755188V51.0137329c0-0.1732178-0.0581055-0.2887573-0.3464966-0.2887573h-5.694519
		c-0.173584,0-0.3464966,0.1155396-0.3464966,0.3464966v9.2949829c-0.6929932-0.0574341-1.097229-0.0574341-1.8479614-0.0574341
		c-8.8357544,0-14.3605347,6.5253906-14.3605347,14.8995361c0,9.7593994,5.5440063,14.5529785,13.2825317,14.5529785
		c3.0026245,0,6.178894-0.6352539,9.1818848-2.0789795c0.2310181-0.1155396,0.3045044-0.173645,0.3045044-0.4046021
		C646.5,85.949707,646.5,84.7369385,646.5,83.755188z M640.1124878,83.7555542
		c-0.6929932,0.2886963-1.6173096,0.4042358-2.4835815,0.4042358c-4.0421753,0-7.256897-2.6564941-7.256897-9.2399902
		c0-5.7750244,3.1569824-9.2399902,7.661499-9.2399902c0.866272,0,1.5595703,0.1154785,2.0789795,0.3464966V83.7555542z"/>
</g>
</svg>
