<?xml version="1.0" encoding="utf-8"?>
<!-- Generator: Adobe Illustrator 28.0.0, SVG Export Plug-In . SVG Version: 6.00 Build 0)  -->
<svg version="1.1" id="Layer_2" xmlns="http://www.w3.org/2000/svg" xmlns:xlink="http://www.w3.org/1999/xlink" x="0px" y="0px"
	 viewBox="0 0 700 400" style="enable-background:new 0 0 700 400;" xml:space="preserve">
<style type="text/css">
	.st0{fill:#FFFFFF;}
	.st1{fill:#F05671;}
	.st2{fill:#231F20;}
</style>
<g>
	<polygon class="st0" points="276.2,119.3 255.1,119.3 255.1,140.3 234.1,140.3 234.1,161.4 234.1,182.5 255.1,182.5 255.1,161.4 
		276.2,161.4 276.2,140.3 297.3,140.3 297.3,119.3 	"/>
</g>
<g>
	<g>
		<path class="st1" d="M465.9,119.3V98.2h-21.1h-21.1h-21.1h-21.1v21.1h-21.1v21.1h-21.1v-21.1h-21.1V98.2h-21.1h-21.1h-21.1h-21.1
			v21.1H213v21.1v21.1v21.1v21.1h21.1v21.1h21.1v21.1h21.1v21.1h21.1v21.1h21.1V309h21.1v21.1h21.1V309h21.1v-21.1h21.1v-21.1h21.1
			v-21.1h21.1v-21.1h21.1v-21.1H487v-21.1v-21.1v-21.1v-21.1H465.9z M234.1,161.4v-21.1h21.1v-21.1h21.1h21.1v21.1h-21.1v21.1h-21.1
			v21.1h-21.1V161.4z"/>
	</g>
</g>
<g>
	<g>
		<rect x="339.5" y="119.3" class="st2" width="21.1" height="21.1"/>
	</g>
	<g>
		<rect x="339.5" y="330.1" class="st2" width="21.1" height="21.1"/>
	</g>
	<g>
		<rect x="360.5" y="98.2" class="st2" width="21.1" height="21.1"/>
	</g>
	<g>
		<rect x="360.5" y="309" class="st2" width="21.1" height="21.1"/>
	</g>
	<g>
		<rect x="381.6" y="287.9" class="st2" width="21.1" height="21.1"/>
	</g>
	<g>
		<polygon class="st2" points="423.8,98.2 444.9,98.2 465.9,98.2 465.9,77.1 444.9,77.1 423.8,77.1 402.7,77.1 381.6,77.1 
			381.6,98.2 402.7,98.2 		"/>
	</g>
	<g>
		<rect x="402.7" y="266.8" class="st2" width="21.1" height="21.1"/>
	</g>
	<g>
		<rect x="423.8" y="245.7" class="st2" width="21.1" height="21.1"/>
	</g>
	<g>
		<rect x="444.9" y="224.7" class="st2" width="21.1" height="21.1"/>
	</g>
	<g>
		<rect x="465.9" y="98.2" class="st2" width="21.1" height="21.1"/>
	</g>
	<g>
		<rect x="465.9" y="203.6" class="st2" width="21.1" height="21.1"/>
	</g>
	<g>
		<polygon class="st2" points="487,119.3 487,140.3 487,161.4 487,182.5 487,203.6 508.1,203.6 508.1,182.5 508.1,161.4 
			508.1,140.3 508.1,119.3 		"/>
	</g>
	<g>
		<polygon class="st2" points="213,161.4 213,140.3 213,119.3 191.9,119.3 191.9,140.3 191.9,161.4 191.9,182.5 191.9,203.6 
			213,203.6 213,182.5 		"/>
	</g>
	<g>
		<rect x="213" y="98.2" class="st2" width="21.1" height="21.1"/>
	</g>
	<g>
		<rect x="213" y="203.6" class="st2" width="21.1" height="21.1"/>
	</g>
	<g>
		<rect x="234.1" y="224.7" class="st2" width="21.1" height="21.1"/>
	</g>
	<g>
		<polygon class="st2" points="276.2,98.2 297.3,98.2 318.4,98.2 318.4,77.1 297.3,77.1 276.2,77.1 255.1,77.1 234.1,77.1 
			234.1,98.2 255.1,98.2 		"/>
	</g>
	<g>
		<rect x="255.1" y="245.7" class="st2" width="21.1" height="21.1"/>
	</g>
	<g>
		<rect x="276.2" y="266.8" class="st2" width="21.1" height="21.1"/>
	</g>
	<g>
		<rect x="297.3" y="287.9" class="st2" width="21.1" height="21.1"/>
	</g>
	<g>
		<rect x="318.4" y="98.2" class="st2" width="21.1" height="21.1"/>
	</g>
	<g>
		<rect x="318.4" y="309" class="st2" width="21.1" height="21.1"/>
	</g>
</g>
</svg>
